<svg version="1.2" xmlns="http://www.w3.org/2000/svg" viewBox="0 0 34 23" width="34" height="23">
	<title>icon-quote-svg</title>
	<defs>
		<linearGradient id="g1" x2="1" gradientUnits="userSpaceOnUse" gradientTransform="matrix(17.776,29.018,-34.488,21.127,1.927,0)">
			<stop offset=".259" stop-color="#440a6b"/>
			<stop offset="1" stop-color="#380957"/>
		</linearGradient>
	</defs>
	<style>
		.s0 { fill: url(#g1) } 
	</style>
	<path id="Layer" fill-rule="evenodd" class="s0" d="m9.6 0.1l1.5 0.9c0.3 0.2 0.3 0.5 0.1 0.8-2.1 2.6-4.1 5.5-4.1 9.1 3 0 6 2.4 6 5.5 0 4.3-3.5 7-7 6.5-3.5-0.5-5.5-3-5.9-6-1-6.9 2.8-13.1 8.4-16.7 0.3-0.3 0.7-0.2 1-0.1zm20.9 0l1.5 0.9c0.3 0.2 0.3 0.5 0.1 0.8-2.1 2.6-4.1 5.5-4.1 9.1 3 0 6 2.4 6 5.5 0 4.3-3.5 7-7 6.5-3.5-0.5-5.5-3-5.9-6-1-6.9 2.8-13.1 8.4-16.7 0.3-0.3 0.7-0.2 1-0.1z"/>
</svg>